<svg xmlns="http://www.w3.org/2000/svg" xmlns:xlink="http://www.w3.org/1999/xlink" viewBox="0 0 287.01 198.74" xml:space="preserve"><style type="text/css">.wpgraphicator-polygon-ohn7dj00gi1yb6fpx6tg polygon {animation-name: wpgraphicator-polygon-ohn7dj00gi1yb6fpx6tg;animation-delay: 0s;animation-duration: 1s;animation-iteration-count: infinite;animation-fill-mode: both;}.wpgraphicator-path-kkcs3803nqi14doxtrww path {animation-name: wpgraphicator-path-kkcs3803nqi14doxtrww;animation-delay: 0s;animation-duration: 1s;animation-iteration-count: infinite;animation-fill-mode: both;}.wpgraphicator-path-x1d125g6r7kpl2cm7wqg path {animation-name: wpgraphicator-path-x1d125g6r7kpl2cm7wqg;animation-delay: 0s;animation-duration: 1s;animation-iteration-count: infinite;animation-fill-mode: both;}.wpgraphicator-path-0d46rrd4g0069ajh16vp path {animation-name: wpgraphicator-path-0d46rrd4g0069ajh16vp;animation-delay: 0s;animation-duration: 1s;animation-iteration-count: infinite;animation-fill-mode: both;}.wpgraphicator-path-4csgxa10fep1w1febw105q path {animation-name: wpgraphicator-path-4csgxa10fep1w1febw105q;animation-delay: 0s;animation-duration: 1s;animation-iteration-count: infinite;animation-fill-mode: both;}.wpgraphicator-path-dchxid5103cvqdxfy2qur path {animation-name: wpgraphicator-path-dchxid5103cvqdxfy2qur;animation-delay: 0s;animation-duration: 1s;animation-iteration-count: infinite;animation-fill-mode: both;}.wpgraphicator-path-ubln8ggi11kq5dacs8btv path {animation-name: wpgraphicator-path-ubln8ggi11kq5dacs8btv;animation-delay: 0s;animation-duration: 1s;animation-iteration-count: infinite;animation-fill-mode: both;}.wpgraphicator-path-3bsl109q0lpb7xijmoprc path {animation-name: wpgraphicator-path-3bsl109q0lpb7xijmoprc;animation-delay: 0s;animation-duration: 1s;animation-iteration-count: infinite;animation-fill-mode: both;}.wpgraphicator-group-ulnb11rvtxqn1txgh118do  {animation-name: wpgraphicator-group-ulnb11rvtxqn1txgh118do;animation-delay: 0s;animation-duration: 1s;animation-iteration-count: infinite;animation-fill-mode: both;}.wpgraphicator-group-ulnb11rvtxqn1txgh118do-angle {animation-name: wpgraphicator-group-ulnb11rvtxqn1txgh118do-angle;animation-delay: 0s;animation-duration: 1s;animation-iteration-count: infinite;animation-fill-mode: both;}@keyframes wpgraphicator-group-ulnb11rvtxqn1txgh118do-angle {0% {animation-timing-function: linear;transform: rotate(0deg);}100% {animation-timing-function: linear;transform: rotate(360deg);}}@keyframes wpgraphicator-polygon-ohn7dj00gi1yb6fpx6tg{}@keyframes wpgraphicator-path-kkcs3803nqi14doxtrww{}@keyframes wpgraphicator-path-x1d125g6r7kpl2cm7wqg{}@keyframes wpgraphicator-path-0d46rrd4g0069ajh16vp{}@keyframes wpgraphicator-path-4csgxa10fep1w1febw105q{}@keyframes wpgraphicator-path-dchxid5103cvqdxfy2qur{}@keyframes wpgraphicator-path-ubln8ggi11kq5dacs8btv{}@keyframes wpgraphicator-path-3bsl109q0lpb7xijmoprc{}@keyframes wpgraphicator-group-ulnb11rvtxqn1txgh118do{0% {}100% {}}</style><g class="wpgraphicator-polygon-ohn7dj00gi1yb6fpx6tg-top" style="transform:translateY(23.33px)"><g class="wpgraphicator-polygon-ohn7dj00gi1yb6fpx6tg-left" style="transform:translateX(237.26px)"><g class="wpgraphicator-polygon-ohn7dj00gi1yb6fpx6tg-angle" style="transform:rotate(0deg)"><g class="wpgraphicator-polygon-ohn7dj00gi1yb6fpx6tg-scaleY" style="transform:scaleY(1)"><g class="wpgraphicator-polygon-ohn7dj00gi1yb6fpx6tg-scaleX" style="transform:scaleX(1)"><g class="wpgraphicator-polygon-ohn7dj00gi1yb6fpx6tg-skewY" style="transform:skewY(0deg)"><g class="wpgraphicator-polygon-ohn7dj00gi1yb6fpx6tg-skewX" style="transform:skewX(0deg)"><g class="wpgraphicator-polygon-ohn7dj00gi1yb6fpx6tg"><polygon stroke="#000000" stroke-opacity="1" stroke-width="0" stroke-dasharray="none" stroke-dashoffset="0" stroke-linecap="butt" stroke-linejoin="miter" stroke-miterlimit="4" fill="none" fill-opacity="0" fill-rule="nonzero" opacity="1" transform=" translate(-237.26, -23.33)" points="237.26,23.33 237.26,23.33 237.26,23.33"></polygon></g></g></g></g></g></g></g></g><g class="wpgraphicator-path-kkcs3803nqi14doxtrww-top" style="transform:translateY(98.52px)"><g class="wpgraphicator-path-kkcs3803nqi14doxtrww-left" style="transform:translateX(143.45px)"><g class="wpgraphicator-path-kkcs3803nqi14doxtrww-angle" style="transform:rotate(0deg)"><g class="wpgraphicator-path-kkcs3803nqi14doxtrww-scaleY" style="transform:scaleY(1)"><g class="wpgraphicator-path-kkcs3803nqi14doxtrww-scaleX" style="transform:scaleX(1)"><g class="wpgraphicator-path-kkcs3803nqi14doxtrww-skewY" style="transform:skewY(0deg)"><g class="wpgraphicator-path-kkcs3803nqi14doxtrww-skewX" style="transform:skewX(0deg)"><g class="wpgraphicator-path-kkcs3803nqi14doxtrww"><path d="M 236.52 24.94 C 213.23 14.17 182.56 6.68 146.6 6.29 L 142.29 6.24 C 106.34 5.86 75.51 12.69 52 22.96 C 26.4 34.16 7.23 58.97 6.82 94.66 L 6.77 99.46 C 6.41 135.15 25.04 160.36 50.4 172.11 C 73.68 182.88 104.35 190.37 140.31 190.75 L 144.62 190.79 L 144.62 190.79 L 144.63 190.79 L 144.63 190.79 C 180.58 191.18 211.41 184.35 234.91 174.08 C 260.52 162.87 279.68 138.07 280.09 102.37 L 280.14 97.58 C 280.5 61.9 261.87 36.69 236.52 24.94 L 237.27 23.33 L 237.27 23.33 L 236.52 24.94 z" stroke="#000000" stroke-opacity="1" stroke-width="0" stroke-dasharray="none" stroke-dashoffset="0" stroke-linecap="butt" stroke-linejoin="miter" stroke-miterlimit="4" fill="#FFFFFF" fill-opacity="1" fill-rule="nonzero" opacity="1" transform=" translate(-143.46, -98.52)"></path></g></g></g></g></g></g></g></g><g class="wpgraphicator-path-x1d125g6r7kpl2cm7wqg-top" style="transform:translateY(98.52px)"><g class="wpgraphicator-path-x1d125g6r7kpl2cm7wqg-left" style="transform:translateX(143.46px)"><g class="wpgraphicator-path-x1d125g6r7kpl2cm7wqg-angle" style="transform:rotate(0deg)"><g class="wpgraphicator-path-x1d125g6r7kpl2cm7wqg-scaleY" style="transform:scaleY(1)"><g class="wpgraphicator-path-x1d125g6r7kpl2cm7wqg-scaleX" style="transform:scaleX(1)"><g class="wpgraphicator-path-x1d125g6r7kpl2cm7wqg-skewY" style="transform:skewY(0deg)"><g class="wpgraphicator-path-x1d125g6r7kpl2cm7wqg-skewX" style="transform:skewX(0deg)"><g class="wpgraphicator-path-x1d125g6r7kpl2cm7wqg"><path d="M 239.9 20.18 C 215.63 8.96 183.87 1.22 146.7 0.82 L 142.31 0.77 C 105.14 0.37 73.22 7.43 48.72 18.12 C 21.39 30.02 0.84 56.8 0.46 94.55 L 0.41 99.43 C -0.02 137.17 19.94 164.39 47.02 176.87 C 71.28 188.09 103.06 195.82 140.21 196.22 L 144.62 196.27 L 144.62 196.27 L 144.87 196.27 L 144.87 196.27 C 181.91 196.63 213.76 189.6 238.2 178.92 C 265.54 167.02 286.09 140.23 286.47 102.49 L 286.52 97.61 C 286.94 59.87 266.97 32.66 239.9 20.18 z M 237.26 23.33 L 236.51 24.94 C 261.86 36.69 280.5 61.9 280.14 97.6 L 280.09 102.39 C 279.68 138.08 260.51 162.89 234.91 174.1 C 211.41 184.36 180.58 191.2 144.63 190.81 L 144.63 190.81 L 144.62 190.81 L 144.62 190.81 L 140.31 190.77 C 104.35 190.39 73.68 182.89 50.4 172.13 C 25.04 160.36 6.42 135.15 6.77 99.46 L 6.82 94.66 C 7.23 58.97 26.4 34.16 52 22.96 C 75.51 12.69 106.34 5.86 142.3 6.25 L 146.61 6.3 C 182.57 6.69 213.23 14.18 236.52 24.95 L 237.26 23.33 L 237.26 23.33 L 237.26 23.33 z" stroke="#000000" stroke-opacity="1" stroke-width="0" stroke-dasharray="none" stroke-dashoffset="0" stroke-linecap="butt" stroke-linejoin="miter" stroke-miterlimit="4" fill="#12100B" fill-opacity="1" fill-rule="nonzero" opacity="1" transform=" translate(-143.46, -98.52)"></path></g></g></g></g></g></g></g></g><g class="wpgraphicator-path-0d46rrd4g0069ajh16vp-top" style="transform:translateY(98.53px)"><g class="wpgraphicator-path-0d46rrd4g0069ajh16vp-left" style="transform:translateX(143.46px)"><g class="wpgraphicator-path-0d46rrd4g0069ajh16vp-angle" style="transform:rotate(0deg)"><g class="wpgraphicator-path-0d46rrd4g0069ajh16vp-scaleY" style="transform:scaleY(1)"><g class="wpgraphicator-path-0d46rrd4g0069ajh16vp-scaleX" style="transform:scaleX(1)"><g class="wpgraphicator-path-0d46rrd4g0069ajh16vp-skewY" style="transform:skewY(0deg)"><g class="wpgraphicator-path-0d46rrd4g0069ajh16vp-skewX" style="transform:skewX(0deg)"><g class="wpgraphicator-path-0d46rrd4g0069ajh16vp"><path d="M 16.4 94.77 C 16.74 62.95 33.69 41.4 55.84 31.73 C 77.62 22.23 106.94 15.44 142.2 15.82 L 146.51 15.87 C 181.77 16.25 210.93 23.66 232.5 33.63 C 254.44 43.78 270.92 65.67 270.58 97.5 L 270.52 102.29 C 270.18 134.11 253.24 155.66 231.08 165.32 C 209.3 174.83 179.98 181.61 144.73 181.23 L 140.42 181.18 C 105.16 180.8 76 173.39 54.42 163.42 C 32.48 153.28 16 131.38 16.35 99.56 L 16.4 94.77 z" stroke="#000000" stroke-opacity="1" stroke-width="0" stroke-dasharray="none" stroke-dashoffset="0" stroke-linecap="butt" stroke-linejoin="miter" stroke-miterlimit="4" fill="#12100B" fill-opacity="1" fill-rule="evenodd" opacity="1" transform=" translate(-143.46, -98.53)"></path></g></g></g></g></g></g></g></g><g class="wpgraphicator-path-4csgxa10fep1w1febw105q-top" style="transform:translateY(91.02px)"><g class="wpgraphicator-path-4csgxa10fep1w1febw105q-left" style="transform:translateX(72.39px)"><g class="wpgraphicator-path-4csgxa10fep1w1febw105q-angle" style="transform:rotate(0deg)"><g class="wpgraphicator-path-4csgxa10fep1w1febw105q-scaleY" style="transform:scaleY(1)"><g class="wpgraphicator-path-4csgxa10fep1w1febw105q-scaleX" style="transform:scaleX(1)"><g class="wpgraphicator-path-4csgxa10fep1w1febw105q-skewY" style="transform:skewY(0deg)"><g class="wpgraphicator-path-4csgxa10fep1w1febw105q-skewX" style="transform:skewX(0deg)"><g class="wpgraphicator-path-4csgxa10fep1w1febw105q"><path d="M 100.24 85.58 C 102.08 76.24 95.48 68.15 79.82 67.99 C 69.3 67.87 64.19 69.13 61 70.03 C 60.97 70.04 60.93 70.06 60.9 70.08 C 60.23 70.31 59.72 70.88 59.58 71.59 C 59.58 71.61 59.57 71.62 59.57 71.62 L 54.41 98.15 C 53.82 101.03 53.3 104.07 51.11 104.38 C 47.76 104.25 44.42 102.43 44.42 102.43 C 44.42 102.43 44.12 104.28 44.3 105.51 C 44.72 107.42 46.07 113.54 57.18 114.06 C 62.28 114.12 67 111.35 68.71 102.98 L 73.89 77.68 C 80.64 76.67 85.94 79.98 84.67 86.18 L 79.91 110.8 L 79.91 110.8 L 79.91 110.81 L 79.91 110.81 C 79.91 111.9 80.78 112.8 81.89 112.82 L 81.89 112.81 L 93.27 112.94 L 93.27 112.94 C 93.29 112.94 93.29 112.94 93.3 112.94 L 93.37 112.94 C 93.37 112.94 93.38 112.93 93.39 112.93 C 94.2 112.9 94.89 112.37 95.17 111.65 C 95.18 111.61 95.2 111.58 95.2 111.55 C 95.2 111.53 95.2 111.53 95.2 111.51 C 95.24 111.38 95.27 111.24 95.28 111.1 C 96.84 102.79 98.64 93.77 100.24 85.58 z" stroke="#000000" stroke-opacity="1" stroke-width="0" stroke-dasharray="none" stroke-dashoffset="0" stroke-linecap="butt" stroke-linejoin="miter" stroke-miterlimit="4" fill="#FFFFFF" fill-opacity="1" fill-rule="nonzero" opacity="1" transform=" translate(-72.39, -91.02)"></path></g></g></g></g></g></g></g></g><g class="wpgraphicator-path-dchxid5103cvqdxfy2qur-top" style="transform:translateY(100.56px)"><g class="wpgraphicator-path-dchxid5103cvqdxfy2qur-left" style="transform:translateX(219.64px)"><g class="wpgraphicator-path-dchxid5103cvqdxfy2qur-angle" style="transform:rotate(0deg)"><g class="wpgraphicator-path-dchxid5103cvqdxfy2qur-scaleY" style="transform:scaleY(1)"><g class="wpgraphicator-path-dchxid5103cvqdxfy2qur-scaleX" style="transform:scaleX(1)"><g class="wpgraphicator-path-dchxid5103cvqdxfy2qur-skewY" style="transform:skewY(0deg)"><g class="wpgraphicator-path-dchxid5103cvqdxfy2qur-skewX" style="transform:skewX(0deg)"><g class="wpgraphicator-path-dchxid5103cvqdxfy2qur"><path d="M 222.63 69.7 C 211.38 69.58 205.74 71.65 203.54 72.75 C 203.51 72.77 203.48 72.79 203.44 72.81 C 202.82 73.06 202.35 73.62 202.23 74.31 C 202.22 74.32 202.22 74.33 202.22 74.33 L 201.3 78.99 C 201.29 80.02 202.05 80.85 203.04 80.99 C 203.1 81 203.14 81 203.19 81 C 203.22 81 203.25 81.01 203.28 81.01 L 203.28 81 C 203.28 81 203.29 81 203.3 80.99 C 206.05 80.31 210.78 79.26 216.32 79.32 C 223.51 79.4 228.61 80.43 226.88 89.01 L 225.15 97.81 C 224.47 101.17 223 105.62 219.3 105.57 C 216.8 105.54 215.06 105.31 213.65 104.43 L 216.37 90.81 L 216.34 90.79 C 216.33 89.73 215.5 88.86 214.43 88.82 L 214.42 88.82 L 204.86 88.72 L 204.84 88.72 L 204.84 88.7 C 203.74 88.69 202.84 89.57 202.82 90.68 L 202.84 90.68 L 196.84 121 C 195.51 127.49 198.6 131.36 205.45 131.43 L 205.69 131.43 C 212.93 131.51 216.01 129.2 217.31 127.16 C 218.09 125.87 218.28 124.16 218.28 124.16 L 213.31 124.11 C 212 124.09 209.95 122.99 210.51 120.82 C 210.75 119.63 212.39 111.84 212.39 111.84 C 214.98 113.61 219 114.85 224.54 114.91 C 229.77 114.97 237.3 113.21 239.59 102.56 L 242.35 88.42 C 244.53 77.99 237.98 69.86 222.63 69.7 z" stroke="#000000" stroke-opacity="1" stroke-width="0" stroke-dasharray="none" stroke-dashoffset="0" stroke-linecap="butt" stroke-linejoin="miter" stroke-miterlimit="4" fill="#FFFFFF" fill-opacity="1" fill-rule="nonzero" opacity="1" transform=" translate(-219.65, -100.56)"></path></g></g></g></g></g></g></g></g><g class="wpgraphicator-path-ubln8ggi11kq5dacs8btv-top" style="transform:translateY(91px)"><g class="wpgraphicator-path-ubln8ggi11kq5dacs8btv-left" style="transform:translateX(173.37px)"><g class="wpgraphicator-path-ubln8ggi11kq5dacs8btv-angle" style="transform:rotate(0deg)"><g class="wpgraphicator-path-ubln8ggi11kq5dacs8btv-scaleY" style="transform:scaleY(1)"><g class="wpgraphicator-path-ubln8ggi11kq5dacs8btv-scaleX" style="transform:scaleX(1)"><g class="wpgraphicator-path-ubln8ggi11kq5dacs8btv-skewY" style="transform:skewY(0deg)"><g class="wpgraphicator-path-ubln8ggi11kq5dacs8btv-skewX" style="transform:skewX(0deg)"><g class="wpgraphicator-path-ubln8ggi11kq5dacs8btv"><path d="M 191.18 69.21 C 182.85 65.94 179.85 70.01 178.92 71.26 C 178.38 72.11 177.99 73.56 177.99 73.56 C 177.99 73.56 180.77 73.27 183.28 74.27 C 184.5 74.95 184.49 77.26 184.05 79.38 C 183.87 80.16 183.23 83.57 183.23 83.57 C 182.52 86.25 181.98 87.14 180.64 87.65 L 172.81 74.27 C 170.93 70.99 167.59 69.04 163.89 69 L 157.3 68.92 L 157.3 68.92 C 156.35 68.93 155.56 69.6 155.36 70.5 L 154.19 76.65 C 154.18 77.74 155.06 78.65 156.16 78.66 L 156.17 78.67 C 156.22 78.66 159.77 78.67 160.48 78.71 C 160.93 78.75 161.76 78.96 162.3 79.77 L 176.22 103.56 L 153.58 103.29 L 153.57 103.29 C 152.48 103.29 151.76 104.12 151.57 105.24 L 151.56 105.24 L 150.22 111.62 L 150.2 111.62 C 150.19 112.6 150.9 113.43 151.84 113.6 C 151.93 113.62 152.06 113.64 152.21 113.64 L 188.59 114.03 L 188.72 113.9 C 189.68 113.83 190.43 113.09 190.55 112.15 L 190.56 112.14 L 191.54 106.69 C 191.54 106.69 191.78 105.42 191.12 104.76 C 189 101.41 185.21 95.05 185.21 95.05 L 188.48 95.08 C 189.93 94.99 193.23 94.19 194.41 88.78 C 195.94 81.78 196.3 79.9 196.3 79.9 C 196.3 79.88 196.29 79.85 196.3 79.82 C 197.38 73.48 194.72 70.75 191.18 69.21 z" stroke="#000000" stroke-opacity="1" stroke-width="0" stroke-dasharray="none" stroke-dashoffset="0" stroke-linecap="butt" stroke-linejoin="miter" stroke-miterlimit="4" fill="#FFFFFF" fill-opacity="1" fill-rule="nonzero" opacity="1" transform=" translate(-173.37, -91)"></path></g></g></g></g></g></g></g></g><g class="wpgraphicator-path-3bsl109q0lpb7xijmoprc-top" style="transform:translateY(90.92px)"><g class="wpgraphicator-path-3bsl109q0lpb7xijmoprc-left" style="transform:translateX(127.2px)"><g class="wpgraphicator-path-3bsl109q0lpb7xijmoprc-angle" style="transform:rotate(0deg)"><g class="wpgraphicator-path-3bsl109q0lpb7xijmoprc-scaleY" style="transform:scaleY(1)"><g class="wpgraphicator-path-3bsl109q0lpb7xijmoprc-scaleX" style="transform:scaleX(1)"><g class="wpgraphicator-path-3bsl109q0lpb7xijmoprc-skewY" style="transform:skewY(0deg)"><g class="wpgraphicator-path-3bsl109q0lpb7xijmoprc-skewX" style="transform:skewX(0deg)"><g class="wpgraphicator-path-3bsl109q0lpb7xijmoprc"><path d="M 134.25 68.59 L 122.07 68.46 C 115.11 68.38 107.68 70.45 105.95 79.35 L 104.8 85.1 C 103.66 90.64 107.74 95.48 114.59 95.55 L 115.94 95.57 C 123.19 95.65 126.27 93.34 127.57 91.3 C 128.35 90.01 128.53 88.3 128.53 88.3 L 122.94 88.24 C 121.63 88.22 119.58 87.12 120.14 84.95 C 120.39 83.96 120.51 83.49 120.67 82.78 C 121.36 80.39 122.6 78.27 126.62 78.31 L 129.66 78.34 C 131.95 78.37 134.45 79.04 134.4 83.51 C 134.39 84.48 134.16 85.68 133.92 86.88 C 133.24 90.46 132.57 93.13 131.88 96.61 C 130.97 101.17 129.54 103 123.88 102.94 L 108.12 102.77 L 108.12 102.77 C 107.02 102.76 106.12 103.65 106.1 104.75 L 104.74 111.07 C 104.73 112.13 105.55 113 106.6 113.07 C 106.64 113.09 106.67 113.1 106.7 113.11 C 106.7 113.11 132.17 113.35 132.47 113.37 C 136.51 113.53 144.58 109.83 146.65 100.05 L 149.4 86.69 C 151.36 77.43 146.22 68.71 134.25 68.59 z" stroke="#000000" stroke-opacity="1" stroke-width="0" stroke-dasharray="none" stroke-dashoffset="0" stroke-linecap="butt" stroke-linejoin="miter" stroke-miterlimit="4" fill="#FFFFFF" fill-opacity="1" fill-rule="nonzero" opacity="1" transform=" translate(-127.21, -90.92)"></path></g></g></g></g></g></g></g></g><g class="wpgraphicator-group-ulnb11rvtxqn1txgh118do-top" style="transform:translateY(146.67px)"><g class="wpgraphicator-group-ulnb11rvtxqn1txgh118do-left" style="transform:translateX(142.81px)"><g class="wpgraphicator-group-ulnb11rvtxqn1txgh118do-angle" style="transform:rotate(0deg)"><g class="wpgraphicator-group-ulnb11rvtxqn1txgh118do-scaleY" style="transform:scaleY(1)"><g class="wpgraphicator-group-ulnb11rvtxqn1txgh118do-scaleX" style="transform:scaleX(1)"><g class="wpgraphicator-group-ulnb11rvtxqn1txgh118do-skewY" style="transform:skewY(0deg)"><g class="wpgraphicator-group-ulnb11rvtxqn1txgh118do-skewX" style="transform:skewX(0deg)"><g class="wpgraphicator-group-ulnb11rvtxqn1txgh118do"><g transform="matrix(1 0 0 1 -11.84 -9.01)" class="wpgraphicator-path-imyv6bo03krvo79vvujk" data-opacity="1"><path d="M 138.53 137.73 C 138.48 141.91 135.06 145.25 130.88 145.21 C 126.71 145.17 123.36 141.75 123.41 137.57 C 123.45 133.4 126.87 130.06 131.04 130.1 C 135.22 130.15 138.57 133.57 138.53 137.73 z" stroke="#000000" stroke-opacity="1" stroke-width="0" stroke-dasharray="none" stroke-dashoffset="0" stroke-linecap="butt" stroke-linejoin="miter" stroke-miterlimit="4" fill="#F5BCD7" fill-opacity="1" fill-rule="nonzero" opacity="1" transform=" translate(-130.97, -137.65)"></path></g><g transform="matrix(1 0 0 1 11.84 -8.75)" class="wpgraphicator-path-mh1d9jt10p110pa8l2chf7" data-opacity="1"><path d="M 162.67 138 C 162.62 142.18 159.21 145.52 155.03 145.48 C 150.86 145.44 147.5 142.02 147.55 137.84 C 147.6 133.67 151.02 130.32 155.19 130.36 C 159.37 130.4 162.72 133.83 162.67 138 z" stroke="#000000" stroke-opacity="1" stroke-width="0" stroke-dasharray="none" stroke-dashoffset="0" stroke-linecap="butt" stroke-linejoin="miter" stroke-miterlimit="4" fill="#EEC95C" fill-opacity="1" fill-rule="nonzero" opacity="1" transform=" translate(-155.11, -137.92)"></path></g><g transform="matrix(1 0 0 1 0.03 9)" class="wpgraphicator-path-81iyuvlhr11jjtw34qa3p" data-opacity="1"><path d="M 150.4 155.75 C 150.36 159.92 146.94 163.27 142.77 163.23 C 138.6 163.18 135.24 159.77 135.28 155.6 C 135.33 151.41 138.75 148.06 142.93 148.1 C 147.1 148.15 150.45 151.58 150.4 155.75 z" stroke="#000000" stroke-opacity="1" stroke-width="0" stroke-dasharray="none" stroke-dashoffset="0" stroke-linecap="butt" stroke-linejoin="miter" stroke-miterlimit="4" fill="#A9CE7C" fill-opacity="1" fill-rule="nonzero" opacity="1" transform=" translate(-142.84, -155.67)"></path></g></g></g></g></g></g></g></g></g></svg>